<mxfile host="app.diagrams.net" modified="2023-12-19T00:31:28.706Z" agent="Mozilla/5.0 (Windows NT 10.0; Win64; x64) AppleWebKit/537.36 (KHTML, like Gecko) Chrome/120.0.0.0 Safari/537.36" etag="h8YIrAgnjGYb2oaILCq7" version="22.1.11" type="device">
  <diagram name="Page-1" id="7i1sOkpYrMC0JnQ72CmT">
    <mxGraphModel dx="1290" dy="541" grid="1" gridSize="10" guides="1" tooltips="1" connect="1" arrows="1" fold="1" page="1" pageScale="1" pageWidth="850" pageHeight="1100" math="0" shadow="0">
      <root>
        <mxCell id="0" />
        <mxCell id="1" parent="0" />
        <mxCell id="WgfaldC59g7sh9OHWHwD-1" value="CLAIMS" style="swimlane;fontStyle=0;childLayout=stackLayout;horizontal=1;startSize=30;horizontalStack=0;resizeParent=1;resizeParentMax=0;resizeLast=0;collapsible=1;marginBottom=0;whiteSpace=wrap;html=1;" vertex="1" parent="1">
          <mxGeometry x="40" y="40" width="240" height="180" as="geometry" />
        </mxCell>
        <mxCell id="WgfaldC59g7sh9OHWHwD-12" value="&lt;span style=&quot;color: rgb(22, 25, 31); font-family: Monaco, Menlo, Consolas, &amp;quot;Courier Prime&amp;quot;, Courier, &amp;quot;Courier New&amp;quot;, monospace; font-size: 12px; font-style: normal; font-variant-ligatures: normal; font-variant-caps: normal; font-weight: 400; letter-spacing: normal; orphans: 2; text-align: left; text-indent: 0px; text-transform: none; widows: 2; word-spacing: 0px; -webkit-text-stroke-width: 0px; background-color: rgb(255, 255, 255); text-decoration-thickness: initial; text-decoration-style: initial; text-decoration-color: initial; float: none; display: inline !important;&quot;&gt;`claim_or_rejected` string, &lt;/span&gt;&lt;br style=&quot;border-color: var(--border-color); color: rgb(22, 25, 31); font-family: Monaco, Menlo, Consolas, &amp;quot;Courier Prime&amp;quot;, Courier, &amp;quot;Courier New&amp;quot;, monospace; font-size: 12px; font-style: normal; font-variant-ligatures: normal; font-variant-caps: normal; font-weight: 400; letter-spacing: normal; orphans: 2; text-align: left; text-indent: 0px; text-transform: none; widows: 2; word-spacing: 0px; -webkit-text-stroke-width: 0px; text-decoration-thickness: initial; text-decoration-style: initial; text-decoration-color: initial;&quot;&gt;&lt;span style=&quot;color: rgb(22, 25, 31); font-family: Monaco, Menlo, Consolas, &amp;quot;Courier Prime&amp;quot;, Courier, &amp;quot;Courier New&amp;quot;, monospace; font-size: 12px; font-style: normal; font-variant-ligatures: normal; font-variant-caps: normal; font-weight: 400; letter-spacing: normal; orphans: 2; text-align: left; text-indent: 0px; text-transform: none; widows: 2; word-spacing: 0px; -webkit-text-stroke-width: 0px; background-color: rgb(255, 255, 255); text-decoration-thickness: initial; text-decoration-style: initial; text-decoration-color: initial; float: none; display: inline !important;&quot;&gt;  `sub_id` string, &lt;/span&gt;&lt;br style=&quot;border-color: var(--border-color); color: rgb(22, 25, 31); font-family: Monaco, Menlo, Consolas, &amp;quot;Courier Prime&amp;quot;, Courier, &amp;quot;Courier New&amp;quot;, monospace; font-size: 12px; font-style: normal; font-variant-ligatures: normal; font-variant-caps: normal; font-weight: 400; letter-spacing: normal; orphans: 2; text-align: left; text-indent: 0px; text-transform: none; widows: 2; word-spacing: 0px; -webkit-text-stroke-width: 0px; text-decoration-thickness: initial; text-decoration-style: initial; text-decoration-color: initial;&quot;&gt;&lt;span style=&quot;color: rgb(22, 25, 31); font-family: Monaco, Menlo, Consolas, &amp;quot;Courier Prime&amp;quot;, Courier, &amp;quot;Courier New&amp;quot;, monospace; font-size: 12px; font-style: normal; font-variant-ligatures: normal; font-variant-caps: normal; font-weight: 400; letter-spacing: normal; orphans: 2; text-align: left; text-indent: 0px; text-transform: none; widows: 2; word-spacing: 0px; -webkit-text-stroke-width: 0px; background-color: rgb(255, 255, 255); text-decoration-thickness: initial; text-decoration-style: initial; text-decoration-color: initial; float: none; display: inline !important;&quot;&gt;  `claim_amount` bigint, &lt;/span&gt;&lt;br style=&quot;border-color: var(--border-color); color: rgb(22, 25, 31); font-family: Monaco, Menlo, Consolas, &amp;quot;Courier Prime&amp;quot;, Courier, &amp;quot;Courier New&amp;quot;, monospace; font-size: 12px; font-style: normal; font-variant-ligatures: normal; font-variant-caps: normal; font-weight: 400; letter-spacing: normal; orphans: 2; text-align: left; text-indent: 0px; text-transform: none; widows: 2; word-spacing: 0px; -webkit-text-stroke-width: 0px; text-decoration-thickness: initial; text-decoration-style: initial; text-decoration-color: initial;&quot;&gt;&lt;span style=&quot;color: rgb(22, 25, 31); font-family: Monaco, Menlo, Consolas, &amp;quot;Courier Prime&amp;quot;, Courier, &amp;quot;Courier New&amp;quot;, monospace; font-size: 12px; font-style: normal; font-variant-ligatures: normal; font-variant-caps: normal; font-weight: 400; letter-spacing: normal; orphans: 2; text-align: left; text-indent: 0px; text-transform: none; widows: 2; word-spacing: 0px; -webkit-text-stroke-width: 0px; background-color: rgb(255, 255, 255); text-decoration-thickness: initial; text-decoration-style: initial; text-decoration-color: initial; float: none; display: inline !important;&quot;&gt;  `claim_date` string, &lt;/span&gt;&lt;br style=&quot;border-color: var(--border-color); color: rgb(22, 25, 31); font-family: Monaco, Menlo, Consolas, &amp;quot;Courier Prime&amp;quot;, Courier, &amp;quot;Courier New&amp;quot;, monospace; font-size: 12px; font-style: normal; font-variant-ligatures: normal; font-variant-caps: normal; font-weight: 400; letter-spacing: normal; orphans: 2; text-align: left; text-indent: 0px; text-transform: none; widows: 2; word-spacing: 0px; -webkit-text-stroke-width: 0px; text-decoration-thickness: initial; text-decoration-style: initial; text-decoration-color: initial;&quot;&gt;&lt;span style=&quot;color: rgb(22, 25, 31); font-family: Monaco, Menlo, Consolas, &amp;quot;Courier Prime&amp;quot;, Courier, &amp;quot;Courier New&amp;quot;, monospace; font-size: 12px; font-style: normal; font-variant-ligatures: normal; font-variant-caps: normal; font-weight: 400; letter-spacing: normal; orphans: 2; text-align: left; text-indent: 0px; text-transform: none; widows: 2; word-spacing: 0px; -webkit-text-stroke-width: 0px; background-color: rgb(255, 255, 255); text-decoration-thickness: initial; text-decoration-style: initial; text-decoration-color: initial; float: none; display: inline !important;&quot;&gt;  `claim_id` bigint, &lt;/span&gt;&lt;br style=&quot;border-color: var(--border-color); color: rgb(22, 25, 31); font-family: Monaco, Menlo, Consolas, &amp;quot;Courier Prime&amp;quot;, Courier, &amp;quot;Courier New&amp;quot;, monospace; font-size: 12px; font-style: normal; font-variant-ligatures: normal; font-variant-caps: normal; font-weight: 400; letter-spacing: normal; orphans: 2; text-align: left; text-indent: 0px; text-transform: none; widows: 2; word-spacing: 0px; -webkit-text-stroke-width: 0px; text-decoration-thickness: initial; text-decoration-style: initial; text-decoration-color: initial;&quot;&gt;&lt;span style=&quot;color: rgb(22, 25, 31); font-family: Monaco, Menlo, Consolas, &amp;quot;Courier Prime&amp;quot;, Courier, &amp;quot;Courier New&amp;quot;, monospace; font-size: 12px; font-style: normal; font-variant-ligatures: normal; font-variant-caps: normal; font-weight: 400; letter-spacing: normal; orphans: 2; text-align: left; text-indent: 0px; text-transform: none; widows: 2; word-spacing: 0px; -webkit-text-stroke-width: 0px; background-color: rgb(255, 255, 255); text-decoration-thickness: initial; text-decoration-style: initial; text-decoration-color: initial; float: none; display: inline !important;&quot;&gt;  `claim_type` string, &lt;/span&gt;&lt;br style=&quot;border-color: var(--border-color); color: rgb(22, 25, 31); font-family: Monaco, Menlo, Consolas, &amp;quot;Courier Prime&amp;quot;, Courier, &amp;quot;Courier New&amp;quot;, monospace; font-size: 12px; font-style: normal; font-variant-ligatures: normal; font-variant-caps: normal; font-weight: 400; letter-spacing: normal; orphans: 2; text-align: left; text-indent: 0px; text-transform: none; widows: 2; word-spacing: 0px; -webkit-text-stroke-width: 0px; text-decoration-thickness: initial; text-decoration-style: initial; text-decoration-color: initial;&quot;&gt;&lt;span style=&quot;color: rgb(22, 25, 31); font-family: Monaco, Menlo, Consolas, &amp;quot;Courier Prime&amp;quot;, Courier, &amp;quot;Courier New&amp;quot;, monospace; font-size: 12px; font-style: normal; font-variant-ligatures: normal; font-variant-caps: normal; font-weight: 400; letter-spacing: normal; orphans: 2; text-align: left; text-indent: 0px; text-transform: none; widows: 2; word-spacing: 0px; -webkit-text-stroke-width: 0px; background-color: rgb(255, 255, 255); text-decoration-thickness: initial; text-decoration-style: initial; text-decoration-color: initial; float: none; display: inline !important;&quot;&gt;  `disease_name` string, &lt;/span&gt;&lt;br style=&quot;border-color: var(--border-color); color: rgb(22, 25, 31); font-family: Monaco, Menlo, Consolas, &amp;quot;Courier Prime&amp;quot;, Courier, &amp;quot;Courier New&amp;quot;, monospace; font-size: 12px; font-style: normal; font-variant-ligatures: normal; font-variant-caps: normal; font-weight: 400; letter-spacing: normal; orphans: 2; text-align: left; text-indent: 0px; text-transform: none; widows: 2; word-spacing: 0px; -webkit-text-stroke-width: 0px; text-decoration-thickness: initial; text-decoration-style: initial; text-decoration-color: initial;&quot;&gt;&lt;span style=&quot;color: rgb(22, 25, 31); font-family: Monaco, Menlo, Consolas, &amp;quot;Courier Prime&amp;quot;, Courier, &amp;quot;Courier New&amp;quot;, monospace; font-size: 12px; font-style: normal; font-variant-ligatures: normal; font-variant-caps: normal; font-weight: 400; letter-spacing: normal; orphans: 2; text-align: left; text-indent: 0px; text-transform: none; widows: 2; word-spacing: 0px; -webkit-text-stroke-width: 0px; background-color: rgb(255, 255, 255); text-decoration-thickness: initial; text-decoration-style: initial; text-decoration-color: initial; float: none; display: inline !important;&quot;&gt;  `patient_id` bigint&lt;/span&gt;" style="text;html=1;strokeColor=none;fillColor=none;align=center;verticalAlign=middle;whiteSpace=wrap;rounded=0;" vertex="1" parent="WgfaldC59g7sh9OHWHwD-1">
          <mxGeometry y="30" width="240" height="150" as="geometry" />
        </mxCell>
        <mxCell id="WgfaldC59g7sh9OHWHwD-6" value="DISEASE" style="swimlane;fontStyle=0;childLayout=stackLayout;horizontal=1;startSize=30;horizontalStack=0;resizeParent=1;resizeParentMax=0;resizeLast=0;collapsible=1;marginBottom=0;whiteSpace=wrap;html=1;" vertex="1" parent="1">
          <mxGeometry x="320" y="40" width="240" height="140" as="geometry" />
        </mxCell>
        <mxCell id="WgfaldC59g7sh9OHWHwD-24" value="&lt;pre style=&quot;font-family: var(--font-family-monospace-yt4nwf, Monaco, Menlo, Consolas, &amp;quot;Courier Prime&amp;quot;, Courier, &amp;quot;Courier New&amp;quot;, monospace); font-size: var(--font-size-body-s-533prh, 12px); background: rgb(255, 255, 255); margin-top: 0px; margin-bottom: 0px; overflow: auto; padding: var(--space-scaled-xl-rljqft, 24px) var(--space-xl-5fdwzu, 24px); -webkit-font-smoothing: auto; line-height: var(--line-height-body-s-n0pazd, 16px); color: rgb(22, 25, 31); text-align: left;&quot; class=&quot;awsui_root_18wu0_lw6ey_93 awsui_box_18wu0_lw6ey_207 awsui_pre-variant_18wu0_lw6ey_207 awsui_p-xl_18wu0_lw6ey_679 awsui_color-default_18wu0_lw6ey_207 awsui_font-size-body-s_18wu0_lw6ey_351 awsui_font-weight-default_18wu0_lw6ey_263&quot; data-testid=&quot;query-results-text&quot;&gt;`subgrpid` string, &lt;br/&gt;`disease_id` bigint, &lt;br/&gt;`disease_name` string&lt;/pre&gt;" style="text;html=1;align=center;verticalAlign=middle;resizable=0;points=[];autosize=1;strokeColor=none;fillColor=none;" vertex="1" parent="WgfaldC59g7sh9OHWHwD-6">
          <mxGeometry y="30" width="240" height="110" as="geometry" />
        </mxCell>
        <mxCell id="WgfaldC59g7sh9OHWHwD-13" value="GROUP" style="swimlane;fontStyle=0;childLayout=stackLayout;horizontal=1;startSize=30;horizontalStack=0;resizeParent=1;resizeParentMax=0;resizeLast=0;collapsible=1;marginBottom=0;whiteSpace=wrap;html=1;" vertex="1" parent="1">
          <mxGeometry x="880" y="40" width="240" height="220" as="geometry" />
        </mxCell>
        <mxCell id="WgfaldC59g7sh9OHWHwD-23" value="&lt;pre style=&quot;font-family: var(--font-family-monospace-yt4nwf, Monaco, Menlo, Consolas, &amp;quot;Courier Prime&amp;quot;, Courier, &amp;quot;Courier New&amp;quot;, monospace); font-size: var(--font-size-body-s-533prh, 12px); background: rgb(255, 255, 255); margin-top: 0px; margin-bottom: 0px; overflow: auto; padding: var(--space-scaled-xl-rljqft, 24px) var(--space-xl-5fdwzu, 24px); -webkit-font-smoothing: auto; line-height: var(--line-height-body-s-n0pazd, 16px); color: rgb(22, 25, 31); text-align: left;&quot; class=&quot;awsui_root_18wu0_lw6ey_93 awsui_box_18wu0_lw6ey_207 awsui_pre-variant_18wu0_lw6ey_207 awsui_p-xl_18wu0_lw6ey_679 awsui_color-default_18wu0_lw6ey_207 awsui_font-size-body-s_18wu0_lw6ey_351 awsui_font-weight-default_18wu0_lw6ey_263&quot; data-testid=&quot;query-results-text&quot;&gt;`country` string, &lt;br/&gt;`premium_written` bigint, &lt;br/&gt;`zipcode` bigint, &lt;br/&gt;`grp_id` string, &lt;br/&gt;`grp_name` string, &lt;br/&gt;`grp_type` string, &lt;br/&gt;`city` string, &lt;br/&gt;`year` bigint&lt;/pre&gt;" style="text;html=1;align=center;verticalAlign=middle;resizable=0;points=[];autosize=1;strokeColor=none;fillColor=none;" vertex="1" parent="WgfaldC59g7sh9OHWHwD-13">
          <mxGeometry y="30" width="240" height="190" as="geometry" />
        </mxCell>
        <mxCell id="WgfaldC59g7sh9OHWHwD-25" value="PATIENT" style="swimlane;fontStyle=0;childLayout=stackLayout;horizontal=1;startSize=30;horizontalStack=0;resizeParent=1;resizeParentMax=0;resizeLast=0;collapsible=1;marginBottom=0;whiteSpace=wrap;html=1;" vertex="1" parent="1">
          <mxGeometry x="40" y="280" width="240" height="220" as="geometry" />
        </mxCell>
        <mxCell id="WgfaldC59g7sh9OHWHwD-29" value="&lt;pre style=&quot;font-family: var(--font-family-monospace-yt4nwf, Monaco, Menlo, Consolas, &amp;quot;Courier Prime&amp;quot;, Courier, &amp;quot;Courier New&amp;quot;, monospace); font-size: var(--font-size-body-s-533prh, 12px); background: rgb(255, 255, 255); margin-top: 0px; margin-bottom: 0px; overflow: auto; padding: var(--space-scaled-xl-rljqft, 24px) var(--space-xl-5fdwzu, 24px); -webkit-font-smoothing: auto; line-height: var(--line-height-body-s-n0pazd, 16px); color: rgb(22, 25, 31); text-align: left;&quot; class=&quot;awsui_root_18wu0_lw6ey_93 awsui_box_18wu0_lw6ey_207 awsui_pre-variant_18wu0_lw6ey_207 awsui_p-xl_18wu0_lw6ey_679 awsui_color-default_18wu0_lw6ey_207 awsui_font-size-body-s_18wu0_lw6ey_351 awsui_font-weight-default_18wu0_lw6ey_263&quot; data-testid=&quot;query-results-text&quot;&gt;`patient_id` bigint,&lt;br&gt;`patient_name` string,&lt;br&gt;`patient_gender` string,&lt;br&gt;`patient_birth_date` string,&lt;br&gt;`patient_phone` string,&lt;br&gt;`disease_name` string,&lt;br&gt;`city` string,&lt;br&gt;`hospital_id` string&lt;/pre&gt;" style="text;html=1;align=center;verticalAlign=middle;resizable=0;points=[];autosize=1;strokeColor=none;fillColor=none;" vertex="1" parent="WgfaldC59g7sh9OHWHwD-25">
          <mxGeometry y="30" width="240" height="190" as="geometry" />
        </mxCell>
        <mxCell id="WgfaldC59g7sh9OHWHwD-30" value="SUBGROUP" style="swimlane;fontStyle=0;childLayout=stackLayout;horizontal=1;startSize=30;horizontalStack=0;resizeParent=1;resizeParentMax=0;resizeLast=0;collapsible=1;marginBottom=0;whiteSpace=wrap;html=1;" vertex="1" parent="1">
          <mxGeometry x="600" y="40" width="240" height="140" as="geometry" />
        </mxCell>
        <mxCell id="WgfaldC59g7sh9OHWHwD-34" value="&lt;pre style=&quot;font-family: var(--font-family-monospace-yt4nwf, Monaco, Menlo, Consolas, &amp;quot;Courier Prime&amp;quot;, Courier, &amp;quot;Courier New&amp;quot;, monospace); font-size: var(--font-size-body-s-533prh, 12px); background: rgb(255, 255, 255); margin-top: 0px; margin-bottom: 0px; overflow: auto; padding: var(--space-scaled-xl-rljqft, 24px) var(--space-xl-5fdwzu, 24px); -webkit-font-smoothing: auto; line-height: var(--line-height-body-s-n0pazd, 16px); color: rgb(22, 25, 31); text-align: left;&quot; class=&quot;awsui_root_18wu0_lw6ey_93 awsui_box_18wu0_lw6ey_207 awsui_pre-variant_18wu0_lw6ey_207 awsui_p-xl_18wu0_lw6ey_679 awsui_color-default_18wu0_lw6ey_207 awsui_font-size-body-s_18wu0_lw6ey_351 awsui_font-weight-default_18wu0_lw6ey_263&quot; data-testid=&quot;query-results-text&quot;&gt;`subgrp_id` string,&lt;br/&gt;`subgrp_name` string,&lt;br/&gt;`monthly_premium` bigint&lt;/pre&gt;" style="text;html=1;align=center;verticalAlign=middle;resizable=0;points=[];autosize=1;strokeColor=none;fillColor=none;" vertex="1" parent="WgfaldC59g7sh9OHWHwD-30">
          <mxGeometry y="30" width="240" height="110" as="geometry" />
        </mxCell>
        <mxCell id="WgfaldC59g7sh9OHWHwD-35" value="SUBSCRIBER" style="swimlane;fontStyle=0;childLayout=stackLayout;horizontal=1;startSize=30;horizontalStack=0;resizeParent=1;resizeParentMax=0;resizeLast=0;collapsible=1;marginBottom=0;whiteSpace=wrap;html=1;" vertex="1" parent="1">
          <mxGeometry x="600" y="280" width="240" height="320" as="geometry" />
        </mxCell>
        <mxCell id="WgfaldC59g7sh9OHWHwD-39" value="&lt;pre style=&quot;font-family: var(--font-family-monospace-yt4nwf, Monaco, Menlo, Consolas, &amp;quot;Courier Prime&amp;quot;, Courier, &amp;quot;Courier New&amp;quot;, monospace); font-size: var(--font-size-body-s-533prh, 12px); background: rgb(255, 255, 255); margin-top: 0px; margin-bottom: 0px; overflow: auto; padding: var(--space-scaled-xl-rljqft, 24px) var(--space-xl-5fdwzu, 24px); -webkit-font-smoothing: auto; line-height: var(--line-height-body-s-n0pazd, 16px); color: rgb(22, 25, 31); text-align: left;&quot; class=&quot;awsui_root_18wu0_lw6ey_93 awsui_box_18wu0_lw6ey_207 awsui_pre-variant_18wu0_lw6ey_207 awsui_p-xl_18wu0_lw6ey_679 awsui_color-default_18wu0_lw6ey_207 awsui_font-size-body-s_18wu0_lw6ey_351 awsui_font-weight-default_18wu0_lw6ey_263&quot; data-testid=&quot;query-results-text&quot;&gt;`sub_id` string,&lt;br&gt;`first_name` string,&lt;br&gt;`last_name` string,&lt;br&gt;`street` string,&lt;br&gt;`birth_date` string,&lt;br&gt;`gender` string,&lt;br&gt;`phone` string,&lt;br&gt;`country` string,&lt;br&gt;`city` string,&lt;br&gt;`zip code` bigint,&lt;br&gt;`subgrp_id` string,&lt;br&gt;`elig_ind` string,&lt;br&gt;`eff_date` string,&lt;br&gt;`term_date` string&lt;/pre&gt;" style="text;html=1;align=center;verticalAlign=middle;resizable=0;points=[];autosize=1;strokeColor=none;fillColor=none;" vertex="1" parent="WgfaldC59g7sh9OHWHwD-35">
          <mxGeometry y="30" width="240" height="290" as="geometry" />
        </mxCell>
        <mxCell id="WgfaldC59g7sh9OHWHwD-40" value="HOSPITAL" style="swimlane;fontStyle=0;childLayout=stackLayout;horizontal=1;startSize=30;horizontalStack=0;resizeParent=1;resizeParentMax=0;resizeLast=0;collapsible=1;marginBottom=0;whiteSpace=wrap;html=1;" vertex="1" parent="1">
          <mxGeometry x="320" y="280" width="240" height="190" as="geometry" />
        </mxCell>
        <mxCell id="WgfaldC59g7sh9OHWHwD-42" value="&lt;pre style=&quot;border-color: var(--border-color); color: rgb(22, 25, 31); font-size: var(--font-size-body-s-533prh, 12px); font-family: var(--font-family-monospace-yt4nwf, Monaco, Menlo, Consolas, &amp;quot;Courier Prime&amp;quot;, Courier, &amp;quot;Courier New&amp;quot;, monospace); background-image: initial; background-position: initial; background-size: initial; background-repeat: initial; background-attachment: initial; background-origin: initial; background-clip: initial; margin-top: 0px; margin-bottom: 0px; overflow: auto; padding: var(--space-scaled-xl-rljqft, 24px) var(--space-xl-5fdwzu, 24px); -webkit-font-smoothing: auto; line-height: var(--line-height-body-s-n0pazd, 16px);&quot; class=&quot;awsui_root_18wu0_lw6ey_93 awsui_box_18wu0_lw6ey_207 awsui_pre-variant_18wu0_lw6ey_207 awsui_p-xl_18wu0_lw6ey_679 awsui_color-default_18wu0_lw6ey_207 awsui_font-size-body-s_18wu0_lw6ey_351 awsui_font-weight-default_18wu0_lw6ey_263&quot; data-testid=&quot;query-results-text&quot;&gt;`hospital_id` string, &lt;br style=&quot;border-color: var(--border-color);&quot;&gt;`hospital_name` string, &lt;br style=&quot;border-color: var(--border-color);&quot;&gt;`city` string, &lt;br style=&quot;border-color: var(--border-color);&quot;&gt;`state` string, &lt;br style=&quot;border-color: var(--border-color);&quot;&gt;`country` string&lt;/pre&gt;" style="text;strokeColor=none;fillColor=none;align=left;verticalAlign=middle;spacingLeft=4;spacingRight=4;overflow=hidden;points=[[0,0.5],[1,0.5]];portConstraint=eastwest;rotatable=0;whiteSpace=wrap;html=1;" vertex="1" parent="WgfaldC59g7sh9OHWHwD-40">
          <mxGeometry y="30" width="240" height="160" as="geometry" />
        </mxCell>
        <mxCell id="WgfaldC59g7sh9OHWHwD-44" value="GROUP_SUBGP" style="swimlane;fontStyle=0;childLayout=stackLayout;horizontal=1;startSize=30;horizontalStack=0;resizeParent=1;resizeParentMax=0;resizeLast=0;collapsible=1;marginBottom=0;whiteSpace=wrap;html=1;" vertex="1" parent="1">
          <mxGeometry x="880" y="280" width="240" height="160" as="geometry" />
        </mxCell>
        <mxCell id="WgfaldC59g7sh9OHWHwD-48" value="&lt;pre style=&quot;border-color: var(--border-color); font-size: var(--font-size-body-s-533prh, 12px); font-family: var(--font-family-monospace-yt4nwf, Monaco, Menlo, Consolas, &amp;quot;Courier Prime&amp;quot;, Courier, &amp;quot;Courier New&amp;quot;, monospace); background: rgb(255, 255, 255); margin-top: 0px; margin-bottom: 0px; overflow: auto; padding: var(--space-scaled-xl-rljqft, 24px) var(--space-xl-5fdwzu, 24px); -webkit-font-smoothing: auto; line-height: var(--line-height-body-s-n0pazd, 16px); color: rgb(22, 25, 31); text-align: left;&quot; class=&quot;awsui_root_18wu0_lw6ey_93 awsui_box_18wu0_lw6ey_207 awsui_pre-variant_18wu0_lw6ey_207 awsui_p-xl_18wu0_lw6ey_679 awsui_color-default_18wu0_lw6ey_207 awsui_font-size-body-s_18wu0_lw6ey_351 awsui_font-weight-default_18wu0_lw6ey_263&quot; data-testid=&quot;query-results-text&quot;&gt;&lt;pre style=&quot;background-image: initial; background-position: initial; background-size: initial; background-repeat: initial; background-attachment: initial; background-origin: initial; background-clip: initial;&quot;&gt;`subgrp_id` string,&lt;/pre&gt;&lt;pre style=&quot;background-image: initial; background-position: initial; background-size: initial; background-repeat: initial; background-attachment: initial; background-origin: initial; background-clip: initial;&quot;&gt;`grp_id` string&lt;/pre&gt;&lt;/pre&gt;" style="text;html=1;align=center;verticalAlign=middle;resizable=0;points=[];autosize=1;strokeColor=none;fillColor=none;" vertex="1" parent="WgfaldC59g7sh9OHWHwD-44">
          <mxGeometry y="30" width="240" height="130" as="geometry" />
        </mxCell>
      </root>
    </mxGraphModel>
  </diagram>
</mxfile>
